<svg xmlns="http://www.w3.org/2000/svg" xmlns:xlink="http://www.w3.org/1999/xlink" width="1080" zoomAndPan="magnify" viewBox="0 0 810 809.999993" height="1080" preserveAspectRatio="xMidYMid meet" version="1.0"><defs><clipPath id="10fb6de170"><path d="M 131.894531 132 L 677.894531 132 L 677.894531 677.894531 L 131.894531 677.894531 Z M 131.894531 132 " clip-rule="nonzero"/></clipPath></defs><g clip-path="url(#10fb6de170)"><path fill="#ffffff" d="M 609.445312 132.964844 L 200.394531 132.964844 C 162.800781 132.964844 131.894531 163.824219 131.894531 201.246094 L 131.894531 608.417969 C 131.894531 645.84375 162.800781 677.027344 200.394531 677.027344 L 403.929688 677.027344 L 403.929688 489.273438 L 336.722656 489.273438 L 336.722656 406.0625 L 403.929688 406.0625 L 403.929688 336.96875 C 403.929688 280.742188 450.703125 236.441406 507.183594 236.441406 L 576.75 236.441406 L 576.75 320.71875 L 541.269531 320.71875 C 522.457031 320.71875 507.40625 318.238281 507.40625 336.96875 L 507.40625 406.0625 L 592.40625 406.0625 L 558.316406 489.273438 L 507.40625 489.273438 L 507.40625 677.027344 L 609.445312 677.027344 C 647.046875 677.027344 678.09375 645.84375 678.09375 608.417969 L 678.09375 201.246094 C 678.09375 163.824219 647.046875 132.964844 609.445312 132.964844 Z M 609.445312 132.964844 " fill-opacity="1" fill-rule="nonzero"/></g></svg>