<?xml version="1.0" encoding="utf-8"?>
<!-- Generator: Adobe Illustrator 25.2.1, SVG Export Plug-In . SVG Version: 6.00 Build 0)  -->
<svg version="1.1" id="Layer_1" xmlns="http://www.w3.org/2000/svg" xmlns:xlink="http://www.w3.org/1999/xlink" x="0px" y="0px"
	 viewBox="0 0 488.8 488.8" style="enable-background:new 0 0 488.8 488.8;" xml:space="preserve">
<style type="text/css">
	.st0{clip-path:url(#SVGID_2_);}
	.st1{clip-path:url(#SVGID_4_);}
	.st2{fill:none;stroke:#246BF6;stroke-width:4;stroke-miterlimit:13.1376;}
	.st3{fill:#246BF6;}
</style>
<g>
	<defs>
		<rect id="SVGID_1_" x="2" y="2" width="484.8" height="484.8"/>
	</defs>
	<clipPath id="SVGID_2_">
		<use xlink:href="#SVGID_1_"  style="overflow:visible;"/>
	</clipPath>
	<g class="st0">
		<g>
			<defs>
				<circle id="SVGID_3_" cx="244.4" cy="244.4" r="242.4"/>
			</defs>
			<clipPath id="SVGID_4_">
				<use xlink:href="#SVGID_3_"  style="overflow:visible;"/>
			</clipPath>
			<g class="st1">
				<path class="st2" d="M244.4,2C110.5,2,2,110.5,2,244.4s108.5,242.4,242.4,242.4s242.4-108.5,242.4-242.4S378.3,2,244.4,2z"/>
			</g>
		</g>
	</g>
</g>
<g>
	<g transform="translate(89.19062, 215.926354)">
		<g>
			<path class="st3" d="M87-68.4H33.1V66.4H87c40.5,0,63.4-24.3,63.4-67.4S127.4-68.4,87-68.4z M89.7,28.7H76.7v-59.3h12.9
				c11.1,0,17.5,10.5,17.5,29.7C107.2,17.9,100.7,28.7,89.7,28.7z"/>
		</g>
	</g>
</g>
<g>
	<g transform="translate(186.060751, 215.926354)">
		<g>
			<path class="st3" d="M138.4,66.4H184L141.9-11l41.3-57.4h-44L109-25.6v-42.9H65.3V66.4H109v-31l7-10.2L138.4,66.4z"/>
		</g>
	</g>
</g>
<g>
	<g transform="translate(279.29065, 215.926354)">
		<g>
			<path class="st3" d="M116.4,68.6c13.8,0,21.6-6.8,21.6-18.4c0-11.6-7.8-18.3-21.6-18.3c-14,0-21.6,6.7-21.6,18.3
				C94.8,61.8,102.4,68.6,116.4,68.6z"/>
		</g>
	</g>
</g>
<g>
	<g transform="translate(139.82087, 267.033451)">
		<g>
			<path d="M66.5,47.4h-4.5v22.1c0,1.9,0,3.2-0.1,4.2c-0.3,4.2-2.4,6.9-6.6,6.9c-4.3,0-6.6-2.4-6.9-7.3l-0.1-2.1h-4.5l0.1,2.1
				c0.1,6.8,4.1,10.9,10.8,10.9c7.6,0,11.3-4.1,11.6-10.2c0.1-1.8,0.1-3,0.1-4.3V47.4z"/>
		</g>
	</g>
</g>
<g>
	<g transform="translate(160.356749, 267.033451)">
		<g>
			<path d="M67.4,46.6c-11,0-17,7.7-17,18.8c0,11,6.1,18.8,17,18.8s17-7.8,17-18.8C84.4,54.4,78.4,46.6,67.4,46.6z M67.4,80.6
				c-7.6,0-12-5.9-12-15.2c0-9.4,4.4-15.2,12-15.2s12,5.8,12,15.2C79.4,74.8,75,80.6,67.4,80.6z"/>
		</g>
	</g>
</g>
<g>
	<g transform="translate(188.456512, 267.033451)">
		<g>
			<path d="M80.6,64.3c3.7-1.2,6.1-3.5,6.1-7.9c0-5.1-3.2-8-8.9-8.8c-1.7-0.2-3-0.2-4.7-0.2H62.5v36.1h11.6c1.7,0,2.8,0,4.6-0.3
				c4.8-0.7,9.3-3.8,9.3-10.3C88,67.9,85.3,65.4,80.6,64.3z M67,51h6.5c0.8,0,1.9,0,2.9,0.1c3.2,0.4,5.5,2,5.5,5.6
				c0,3.2-1.4,5.4-5.1,6c-1,0.1-1.9,0.2-2.9,0.2H67V51z M77.3,79.7c-0.7,0.1-1.7,0.1-2.5,0.1H67V66.6h7.5c0.9,0,1.7,0,2.9,0.2
				c3.5,0.5,5.9,2.1,5.9,6.5C83.2,77.2,80.7,79.4,77.3,79.7z"/>
		</g>
	</g>
</g>
<g>
	<g transform="translate(212.245245, 267.033451)">
		<g>
			<path d="M81.6,46.6c-6.6,0-12,3.9-12,10.1c0,6,4.4,8.5,10.8,10c6.3,1.5,8.8,3.4,8.8,7.8c0,3.8-3.3,6-7.5,6c-4.7,0-8-2.7-9-7.4
				h-4.8c0.8,7,5.8,11,13.8,11c7,0,12.4-4.1,12.4-10.4c0-6.1-4-9.4-11.9-11.2c-5.5-1.2-7.7-2.9-7.7-6.9c0-3.8,3-5.5,6.8-5.5
				c4.6,0,7.2,2.6,7.6,7.2h4.8C93,51.2,89.1,46.6,81.6,46.6z"/>
		</g>
	</g>
</g>
</svg>
