<svg xmlns="http://www.w3.org/2000/svg" xmlns:xlink="http://www.w3.org/1999/xlink" width="500" zoomAndPan="magnify" viewBox="0 0 375 374.999991" height="500" preserveAspectRatio="xMidYMid meet" version="1.0"><defs><g/></defs><g fill="#ffffff" fill-opacity="1"><g transform="translate(-2.30471, 238.68465)"><g><path d="M 76.71875 -164.625 C 101.519531 -164.625 120.613281 -157.488281 134 -143.21875 C 147.382812 -128.945312 154.078125 -108.644531 154.078125 -82.3125 C 154.078125 -55.96875 147.382812 -35.660156 134 -21.390625 C 120.613281 -7.128906 101.519531 0 76.71875 0 L 10.859375 0 L 10.859375 -164.625 Z M 80 -46.09375 C 86.8125 -46.09375 92.082031 -49.273438 95.8125 -55.640625 C 99.539062 -62.003906 101.40625 -70.894531 101.40625 -82.3125 C 101.40625 -93.945312 99.539062 -102.890625 95.8125 -109.140625 C 92.082031 -115.398438 86.8125 -118.53125 80 -118.53125 L 64.203125 -118.53125 L 64.203125 -46.09375 Z M 80 -46.09375 "/></g></g></g><g fill="#ffffff" fill-opacity="1"><g transform="translate(155.386933, 238.68465)"><g><path d="M 100.09375 0 L 72.765625 -50.375 L 64.203125 -37.859375 L 64.203125 0 L 10.859375 0 L 10.859375 -164.625 L 64.203125 -164.625 L 64.203125 -112.265625 L 101.078125 -164.625 L 154.75 -164.625 L 104.375 -94.484375 L 155.734375 0 Z M 100.09375 0 "/></g></g></g><g fill="#ffffff" fill-opacity="1"><g transform="translate(307.152766, 238.68465)"><g><path d="M 35.234375 2.640625 C 26.671875 2.640625 20.140625 0.664062 15.640625 -3.28125 C 11.140625 -7.238281 8.890625 -12.726562 8.890625 -19.75 C 8.890625 -26.78125 11.140625 -32.269531 15.640625 -36.21875 C 20.140625 -40.164062 26.671875 -42.140625 35.234375 -42.140625 C 43.566406 -42.140625 50.035156 -40.164062 54.640625 -36.21875 C 59.253906 -32.269531 61.5625 -26.78125 61.5625 -19.75 C 61.5625 -12.726562 59.253906 -7.238281 54.640625 -3.28125 C 50.035156 0.664062 43.566406 2.640625 35.234375 2.640625 Z M 35.234375 2.640625 "/></g></g></g><g fill="#ffffff" fill-opacity="1"><g transform="translate(109.884755, 321.880213)"><g><path d="M 31.140625 -44.03125 L 31.140625 -16.84375 C 31.140625 -16.039062 31.140625 -15.234375 31.140625 -14.421875 C 31.140625 -13.609375 31.097656 -12.648438 31.015625 -11.546875 C 30.796875 -7.847656 29.535156 -4.847656 27.234375 -2.546875 C 24.941406 -0.253906 21.457031 0.890625 16.78125 0.890625 C 12.695312 0.890625 9.492188 -0.285156 7.171875 -2.640625 C 4.859375 -5.003906 3.660156 -8.25 3.578125 -12.375 L 3.515625 -15 L 9 -15 L 9.125 -12.375 C 9.425781 -6.425781 12.234375 -3.453125 17.546875 -3.453125 C 20.097656 -3.453125 22.03125 -4.203125 23.34375 -5.703125 C 24.664062 -7.210938 25.414062 -9.269531 25.59375 -11.875 C 25.632812 -12.507812 25.65625 -13.238281 25.65625 -14.0625 C 25.65625 -14.894531 25.65625 -15.882812 25.65625 -17.03125 L 25.65625 -44.03125 Z M 31.140625 -44.03125 "/></g></g></g><g fill="#ffffff" fill-opacity="1"><g transform="translate(143.314427, 321.880213)"><g><path d="M 23.796875 -44.921875 C 28.265625 -44.921875 32.050781 -43.941406 35.15625 -41.984375 C 38.257812 -40.023438 40.609375 -37.332031 42.203125 -33.90625 C 43.804688 -30.488281 44.609375 -26.523438 44.609375 -22.015625 C 44.609375 -17.546875 43.804688 -13.585938 42.203125 -10.140625 C 40.609375 -6.703125 38.257812 -4.003906 35.15625 -2.046875 C 32.050781 -0.0859375 28.265625 0.890625 23.796875 0.890625 C 19.335938 0.890625 15.5625 -0.0859375 12.46875 -2.046875 C 9.382812 -4.003906 7.035156 -6.703125 5.421875 -10.140625 C 3.804688 -13.585938 3 -17.546875 3 -22.015625 C 3 -26.523438 3.804688 -30.488281 5.421875 -33.90625 C 7.035156 -37.332031 9.382812 -40.023438 12.46875 -41.984375 C 15.5625 -43.941406 19.335938 -44.921875 23.796875 -44.921875 Z M 23.796875 -3.453125 C 28.429688 -3.453125 32.035156 -5.117188 34.609375 -8.453125 C 37.191406 -11.796875 38.484375 -16.316406 38.484375 -22.015625 C 38.484375 -27.753906 37.191406 -32.28125 34.609375 -35.59375 C 32.035156 -38.914062 28.429688 -40.578125 23.796875 -40.578125 C 19.160156 -40.578125 15.554688 -38.914062 12.984375 -35.59375 C 10.410156 -32.28125 9.125 -27.753906 9.125 -22.015625 C 9.125 -16.316406 10.410156 -11.796875 12.984375 -8.453125 C 15.554688 -5.117188 19.160156 -3.453125 23.796875 -3.453125 Z M 23.796875 -3.453125 "/></g></g></g><g fill="#ffffff" fill-opacity="1"><g transform="translate(189.057093, 321.880213)"><g><path d="M 28.453125 -23.421875 C 31.347656 -22.734375 33.582031 -21.570312 35.15625 -19.9375 C 36.726562 -18.300781 37.515625 -15.972656 37.515625 -12.953125 C 37.515625 -10.273438 36.972656 -8.050781 35.890625 -6.28125 C 34.804688 -4.519531 33.398438 -3.160156 31.671875 -2.203125 C 29.953125 -1.242188 28.113281 -0.613281 26.15625 -0.3125 C 25.09375 -0.144531 24.144531 -0.0507812 23.3125 -0.03125 C 22.488281 -0.0078125 21.566406 0 20.546875 0 L 6.375 0 L 6.375 -44.03125 L 19.328125 -44.03125 C 20.398438 -44.03125 21.359375 -44.019531 22.203125 -44 C 23.054688 -43.976562 24.015625 -43.90625 25.078125 -43.78125 C 28.566406 -43.3125 31.242188 -42.191406 33.109375 -40.421875 C 34.984375 -38.660156 35.921875 -36.207031 35.921875 -33.0625 C 35.921875 -30.414062 35.238281 -28.335938 33.875 -26.828125 C 32.519531 -25.316406 30.710938 -24.179688 28.453125 -23.421875 Z M 11.875 -39.5625 L 11.875 -25.078125 L 20.359375 -25.078125 C 20.953125 -25.078125 21.523438 -25.097656 22.078125 -25.140625 C 22.628906 -25.179688 23.222656 -25.242188 23.859375 -25.328125 C 26.117188 -25.671875 27.71875 -26.476562 28.65625 -27.75 C 29.59375 -29.03125 30.0625 -30.648438 30.0625 -32.609375 C 30.0625 -34.773438 29.429688 -36.398438 28.171875 -37.484375 C 26.921875 -38.566406 25.296875 -39.21875 23.296875 -39.4375 C 22.742188 -39.519531 22.144531 -39.5625 21.5 -39.5625 C 20.863281 -39.5625 20.289062 -39.5625 19.78125 -39.5625 Z M 24.4375 -4.59375 C 26.5625 -4.800781 28.296875 -5.554688 29.640625 -6.859375 C 30.984375 -8.160156 31.65625 -10 31.65625 -12.375 C 31.65625 -15.101562 30.992188 -17.039062 29.671875 -18.1875 C 28.347656 -19.332031 26.625 -20.054688 24.5 -20.359375 C 23.78125 -20.441406 23.144531 -20.503906 22.59375 -20.546875 C 22.039062 -20.585938 21.507812 -20.609375 21 -20.609375 L 11.875 -20.609375 L 11.875 -4.46875 L 21.375 -4.46875 C 21.882812 -4.46875 22.414062 -4.476562 22.96875 -4.5 C 23.519531 -4.519531 24.007812 -4.550781 24.4375 -4.59375 Z M 24.4375 -4.59375 "/></g></g></g><g fill="#ffffff" fill-opacity="1"><g transform="translate(227.781976, 321.880213)"><g><path d="M 20.03125 -44.921875 C 23.09375 -44.921875 25.664062 -44.359375 27.75 -43.234375 C 29.84375 -42.109375 31.472656 -40.554688 32.640625 -38.578125 C 33.804688 -36.597656 34.519531 -34.351562 34.78125 -31.84375 L 28.90625 -31.84375 C 28.65625 -34.601562 27.726562 -36.75 26.125 -38.28125 C 24.53125 -39.8125 22.351562 -40.578125 19.59375 -40.578125 C 17.25 -40.578125 15.269531 -40.023438 13.65625 -38.921875 C 12.039062 -37.816406 11.234375 -36.117188 11.234375 -33.828125 C 11.234375 -31.441406 11.96875 -29.640625 13.4375 -28.421875 C 14.90625 -27.210938 17.316406 -26.226562 20.671875 -25.46875 C 25.523438 -24.351562 29.160156 -22.734375 31.578125 -20.609375 C 34.003906 -18.484375 35.21875 -15.550781 35.21875 -11.8125 C 35.21875 -9.207031 34.546875 -6.957031 33.203125 -5.0625 C 31.867188 -3.175781 30.0625 -1.710938 27.78125 -0.671875 C 25.507812 0.367188 22.945312 0.890625 20.09375 0.890625 C 15.25 0.890625 11.359375 -0.273438 8.421875 -2.609375 C 5.484375 -4.953125 3.78125 -8.25 3.3125 -12.5 L 9.1875 -12.5 C 9.820312 -9.613281 11.109375 -7.382812 13.046875 -5.8125 C 14.984375 -4.238281 17.378906 -3.453125 20.234375 -3.453125 C 22.742188 -3.453125 24.890625 -4.097656 26.671875 -5.390625 C 28.460938 -6.691406 29.359375 -8.488281 29.359375 -10.78125 C 29.359375 -13.457031 28.523438 -15.5 26.859375 -16.90625 C 25.203125 -18.3125 22.4375 -19.460938 18.5625 -20.359375 C 15.96875 -20.953125 13.679688 -21.738281 11.703125 -22.71875 C 9.734375 -23.695312 8.179688 -24.972656 7.046875 -26.546875 C 5.921875 -28.117188 5.359375 -30.117188 5.359375 -32.546875 C 5.359375 -35.097656 6.015625 -37.296875 7.328125 -39.140625 C 8.648438 -40.992188 10.425781 -42.421875 12.65625 -43.421875 C 14.894531 -44.421875 17.351562 -44.921875 20.03125 -44.921875 Z M 20.03125 -44.921875 "/></g></g></g></svg>