<svg xmlns="http://www.w3.org/2000/svg" xmlns:xlink="http://www.w3.org/1999/xlink" width="1080" zoomAndPan="magnify" viewBox="0 0 810 809.999993" height="1080" preserveAspectRatio="xMidYMid meet" version="1.0"><defs><clipPath id="0d6c0c94a9"><path d="M 84 129.925781 L 630 129.925781 L 630 676 L 84 676 Z M 84 129.925781 " clip-rule="nonzero"/></clipPath></defs><path fill="#ffffff" d="M 697.839844 644.558594 C 698.53125 644.566406 699.214844 644.503906 699.894531 644.367188 C 700.574219 644.234375 701.234375 644.035156 701.871094 643.765625 C 702.511719 643.496094 703.113281 643.164062 703.683594 642.769531 C 704.253906 642.375 704.777344 641.929688 705.253906 641.429688 C 705.730469 640.925781 706.152344 640.382812 706.519531 639.792969 C 706.882812 639.207031 707.1875 638.589844 707.425781 637.9375 C 707.664062 637.289062 707.835938 636.621094 707.9375 635.9375 C 708.035156 635.25 708.066406 634.5625 708.03125 633.871094 C 708.03125 626.292969 703.457031 622.671875 694.074219 622.671875 L 678.914062 622.671875 L 678.914062 662.355469 L 684.617188 662.355469 L 684.617188 645.058594 L 691.625 645.058594 L 691.785156 645.265625 L 702.65625 662.355469 L 708.753906 662.355469 L 697.054688 644.667969 Z M 691.246094 640.585938 L 684.632812 640.585938 L 684.632812 627.167969 L 693.015625 627.167969 C 697.34375 627.167969 702.277344 627.875 702.277344 633.542969 C 702.277344 640.0625 697.285156 640.585938 691.210938 640.585938 " fill-opacity="1" fill-rule="nonzero"/><g clip-path="url(#0d6c0c94a9)"><path fill="#ffffff" d="M 549.113281 594.832031 L 468.265625 594.832031 L 468.265625 468.21875 C 468.265625 438.027344 467.726562 399.164062 426.21875 399.164062 C 384.109375 399.164062 377.667969 432.058594 377.667969 466.023438 L 377.667969 594.820312 L 296.820312 594.820312 L 296.820312 334.460938 L 374.433594 334.460938 L 374.433594 370.042969 L 375.519531 370.042969 C 376.484375 368.390625 377.503906 366.773438 378.578125 365.191406 C 379.65625 363.609375 380.78125 362.066406 381.960938 360.5625 C 383.136719 359.054688 384.367188 357.589844 385.644531 356.167969 C 386.921875 354.746094 388.246094 353.367188 389.613281 352.03125 C 390.984375 350.699219 392.398438 349.414062 393.855469 348.175781 C 395.3125 346.9375 396.808594 345.746094 398.347656 344.609375 C 399.882812 343.472656 401.457031 342.390625 403.066406 341.355469 C 404.679688 340.324219 406.320312 339.351562 407.996094 338.429688 C 409.671875 337.507812 411.378906 336.644531 413.113281 335.839844 C 414.847656 335.035156 416.605469 334.289062 418.390625 333.601562 C 420.175781 332.914062 421.980469 332.289062 423.808594 331.722656 C 425.632812 331.160156 427.476562 330.65625 429.339844 330.214844 C 431.199219 329.773438 433.074219 329.398438 434.960938 329.082031 C 436.84375 328.769531 438.738281 328.519531 440.644531 328.332031 C 442.546875 328.144531 444.453125 328.023438 446.363281 327.964844 C 448.277344 327.90625 450.1875 327.914062 452.097656 327.984375 C 534.039062 327.984375 549.148438 381.882812 549.148438 452 Z M 205.597656 298.871094 C 204.0625 298.871094 202.527344 298.796875 201 298.644531 C 199.46875 298.496094 197.953125 298.269531 196.445312 297.972656 C 194.9375 297.671875 193.449219 297.296875 191.976562 296.851562 C 190.507812 296.40625 189.0625 295.890625 187.644531 295.300781 C 186.222656 294.714844 184.835938 294.058594 183.480469 293.335938 C 182.125 292.609375 180.808594 291.820312 179.53125 290.96875 C 178.253906 290.113281 177.019531 289.199219 175.832031 288.226562 C 174.644531 287.25 173.507812 286.222656 172.417969 285.136719 C 171.332031 284.046875 170.300781 282.910156 169.328125 281.722656 C 168.351562 280.535156 167.4375 279.304688 166.582031 278.027344 C 165.730469 276.75 164.941406 275.433594 164.214844 274.078125 C 163.492188 272.722656 162.835938 271.335938 162.246094 269.917969 C 161.660156 268.496094 161.140625 267.050781 160.695312 265.582031 C 160.25 264.109375 159.875 262.621094 159.574219 261.117188 C 159.277344 259.609375 159.050781 258.089844 158.898438 256.5625 C 158.75 255.03125 158.671875 253.5 158.671875 251.960938 C 158.671875 250.425781 158.746094 248.894531 158.898438 247.363281 C 159.046875 245.835938 159.273438 244.316406 159.574219 242.808594 C 159.871094 241.300781 160.246094 239.8125 160.691406 238.34375 C 161.136719 236.871094 161.652344 235.425781 162.242188 234.007812 C 162.828125 232.589844 163.484375 231.199219 164.210938 229.84375 C 164.933594 228.488281 165.722656 227.171875 166.574219 225.894531 C 167.429688 224.617188 168.34375 223.386719 169.316406 222.195312 C 170.292969 221.007812 171.320312 219.871094 172.40625 218.785156 C 173.496094 217.699219 174.632812 216.667969 175.820312 215.691406 C 177.007812 214.71875 178.238281 213.804688 179.515625 212.949219 C 180.792969 212.09375 182.109375 211.304688 183.464844 210.582031 C 184.820312 209.855469 186.207031 209.199219 187.625 208.613281 C 189.046875 208.023438 190.492188 207.507812 191.960938 207.058594 C 193.433594 206.613281 194.921875 206.242188 196.429688 205.941406 C 197.933594 205.640625 199.453125 205.414062 200.984375 205.265625 C 202.511719 205.113281 204.042969 205.039062 205.582031 205.039062 C 207.117188 205.035156 208.652344 205.113281 210.179688 205.261719 C 211.710938 205.414062 213.226562 205.636719 214.734375 205.9375 C 216.242188 206.238281 217.730469 206.609375 219.199219 207.054688 C 220.671875 207.5 222.117188 208.019531 223.535156 208.605469 C 224.957031 209.191406 226.34375 209.847656 227.699219 210.574219 C 229.054688 211.296875 230.371094 212.085938 231.648438 212.941406 C 232.925781 213.792969 234.160156 214.707031 235.347656 215.683594 C 236.535156 216.65625 237.671875 217.6875 238.757812 218.773438 C 239.84375 219.859375 240.875 220.996094 241.851562 222.183594 C 242.824219 223.371094 243.738281 224.605469 244.59375 225.882812 C 245.449219 227.160156 246.238281 228.476562 246.960938 229.832031 C 247.6875 231.183594 248.34375 232.574219 248.929688 233.992188 C 249.519531 235.410156 250.039062 236.855469 250.484375 238.328125 C 250.929688 239.796875 251.304688 241.285156 251.601562 242.792969 C 251.902344 244.300781 252.128906 245.816406 252.28125 247.347656 C 252.429688 248.875 252.507812 250.410156 252.507812 251.945312 C 252.507812 253.480469 252.433594 255.015625 252.28125 256.542969 C 252.132812 258.074219 251.90625 259.589844 251.605469 261.097656 C 251.308594 262.605469 250.933594 264.09375 250.488281 265.566406 C 250.042969 267.035156 249.527344 268.480469 248.9375 269.902344 C 248.351562 271.320312 247.695312 272.707031 246.96875 274.0625 C 246.246094 275.417969 245.457031 276.734375 244.605469 278.011719 C 243.75 279.289062 242.835938 280.523438 241.863281 281.710938 C 240.886719 282.898438 239.855469 284.035156 238.769531 285.125 C 237.683594 286.210938 236.546875 287.242188 235.359375 288.214844 C 234.171875 289.191406 232.941406 290.105469 231.660156 290.960938 C 230.386719 291.8125 229.070312 292.601562 227.714844 293.328125 C 226.359375 294.050781 224.972656 294.707031 223.550781 295.296875 C 222.132812 295.882812 220.6875 296.402344 219.21875 296.847656 C 217.746094 297.292969 216.257812 297.667969 214.75 297.96875 C 213.242188 298.265625 211.726562 298.492188 210.195312 298.644531 C 208.667969 298.792969 207.132812 298.871094 205.597656 298.871094 M 246.019531 594.832031 L 165.089844 594.832031 L 165.089844 334.460938 L 246.019531 334.460938 Z M 589.417969 129.960938 L 124.464844 129.960938 C 123.160156 129.945312 121.859375 129.992188 120.5625 130.105469 C 119.265625 130.21875 117.972656 130.394531 116.691406 130.636719 C 115.410156 130.875 114.144531 131.175781 112.894531 131.542969 C 111.644531 131.90625 110.414062 132.328125 109.203125 132.816406 C 107.992188 133.300781 106.808594 133.84375 105.652344 134.441406 C 104.496094 135.042969 103.371094 135.699219 102.28125 136.410156 C 101.1875 137.125 100.132812 137.886719 99.117188 138.703125 C 98.097656 139.515625 97.125 140.378906 96.191406 141.289062 C 95.261719 142.199219 94.375 143.15625 93.535156 144.152344 C 92.699219 145.148438 91.910156 146.1875 91.171875 147.261719 C 90.433594 148.335938 89.753906 149.445312 89.125 150.585938 C 88.496094 151.730469 87.925781 152.898438 87.414062 154.097656 C 86.902344 155.296875 86.445312 156.515625 86.054688 157.757812 C 85.660156 159 85.328125 160.257812 85.058594 161.535156 C 84.789062 162.808594 84.582031 164.09375 84.4375 165.390625 C 84.296875 166.683594 84.214844 167.984375 84.199219 169.289062 L 84.199219 636.171875 C 84.214844 637.476562 84.292969 638.777344 84.4375 640.070312 C 84.582031 641.367188 84.789062 642.652344 85.054688 643.929688 C 85.324219 645.207031 85.65625 646.464844 86.050781 647.707031 C 86.441406 648.953125 86.894531 650.171875 87.410156 651.371094 C 87.921875 652.570312 88.492188 653.742188 89.121094 654.882812 C 89.75 656.027344 90.429688 657.136719 91.167969 658.210938 C 91.902344 659.289062 92.691406 660.324219 93.53125 661.324219 C 94.367188 662.324219 95.253906 663.277344 96.1875 664.191406 C 97.117188 665.101562 98.09375 665.964844 99.109375 666.78125 C 100.125 667.597656 101.179688 668.359375 102.273438 669.074219 C 103.367188 669.785156 104.488281 670.441406 105.644531 671.046875 C 106.804688 671.648438 107.988281 672.191406 109.195312 672.675781 C 110.40625 673.164062 111.636719 673.585938 112.890625 673.953125 C 114.140625 674.316406 115.40625 674.621094 116.691406 674.859375 C 117.972656 675.101562 119.261719 675.277344 120.558594 675.394531 C 121.859375 675.507812 123.160156 675.558594 124.464844 675.542969 L 589.417969 675.542969 C 590.726562 675.558594 592.03125 675.511719 593.332031 675.398438 C 594.632812 675.289062 595.925781 675.113281 597.210938 674.875 C 598.496094 674.636719 599.765625 674.335938 601.019531 673.972656 C 602.273438 673.609375 603.507812 673.183594 604.722656 672.699219 C 605.9375 672.214844 607.125 671.671875 608.285156 671.070312 C 609.445312 670.472656 610.570312 669.816406 611.667969 669.101562 C 612.761719 668.390625 613.820312 667.628906 614.84375 666.8125 C 615.863281 665.996094 616.839844 665.132812 617.777344 664.222656 C 618.710938 663.308594 619.601562 662.355469 620.445312 661.355469 C 621.285156 660.355469 622.078125 659.320312 622.816406 658.242188 C 623.558594 657.167969 624.246094 656.054688 624.875 654.910156 C 625.507812 653.769531 626.082031 652.597656 626.597656 651.394531 C 627.113281 650.195312 627.570312 648.972656 627.964844 647.726562 C 628.363281 646.484375 628.695312 645.222656 628.96875 643.945312 C 629.242188 642.664062 629.449219 641.378906 629.597656 640.078125 C 629.742188 638.78125 629.824219 637.476562 629.84375 636.171875 L 629.84375 169.253906 C 629.824219 167.949219 629.742188 166.648438 629.597656 165.347656 C 629.449219 164.050781 629.238281 162.765625 628.964844 161.488281 C 628.695312 160.210938 628.359375 158.949219 627.960938 157.703125 C 627.566406 156.460938 627.109375 155.238281 626.59375 154.039062 C 626.074219 152.839844 625.503906 151.667969 624.871094 150.527344 C 624.238281 149.382812 623.554688 148.273438 622.8125 147.199219 C 622.070312 146.121094 621.28125 145.085938 620.4375 144.085938 C 619.59375 143.089844 618.707031 142.132812 617.769531 141.222656 C 616.835938 140.3125 615.855469 139.449219 614.835938 138.636719 C 613.816406 137.820312 612.757812 137.058594 611.660156 136.347656 C 610.566406 135.636719 609.4375 134.980469 608.277344 134.382812 C 607.117188 133.78125 605.929688 133.242188 604.71875 132.757812 C 603.503906 132.273438 602.273438 131.851562 601.015625 131.488281 C 599.761719 131.125 598.492188 130.824219 597.207031 130.589844 C 595.925781 130.351562 594.632812 130.175781 593.332031 130.066406 C 592.03125 129.953125 590.726562 129.90625 589.417969 129.925781 " fill-opacity="1" fill-rule="nonzero"/></g><path fill="#ffffff" d="M 691.933594 604.996094 C 691.125 605.003906 690.316406 605.035156 689.511719 605.097656 C 688.703125 605.160156 687.898438 605.246094 687.097656 605.359375 C 686.296875 605.472656 685.5 605.609375 684.707031 605.773438 C 683.914062 605.941406 683.128906 606.132812 682.347656 606.347656 C 681.566406 606.5625 680.792969 606.804688 680.03125 607.074219 C 679.265625 607.339844 678.511719 607.628906 677.765625 607.945312 C 677.023438 608.261719 676.285156 608.601562 675.5625 608.96875 C 674.839844 609.332031 674.128906 609.71875 673.433594 610.128906 C 672.734375 610.539062 672.050781 610.972656 671.382812 611.425781 C 670.710938 611.882812 670.058594 612.359375 669.417969 612.855469 C 668.78125 613.351562 668.160156 613.871094 667.554688 614.410156 C 666.949219 614.949219 666.363281 615.503906 665.792969 616.082031 C 665.226562 616.65625 664.679688 617.253906 664.148438 617.863281 C 663.621094 618.476562 663.109375 619.105469 662.621094 619.75 C 662.132812 620.398438 661.667969 621.058594 661.222656 621.734375 C 660.777344 622.410156 660.351562 623.101562 659.953125 623.804688 C 659.550781 624.507812 659.175781 625.222656 658.820312 625.953125 C 658.46875 626.679688 658.140625 627.417969 657.832031 628.167969 C 657.53125 628.917969 657.25 629.675781 656.992188 630.445312 C 656.738281 631.214844 656.507812 631.988281 656.300781 632.773438 C 656.097656 633.554688 655.917969 634.34375 655.761719 635.140625 C 655.609375 635.933594 655.484375 636.734375 655.378906 637.535156 C 655.28125 638.339844 655.203125 639.144531 655.15625 639.953125 C 655.105469 640.761719 655.082031 641.570312 655.085938 642.378906 C 655.089844 643.1875 655.121094 643.996094 655.179688 644.804688 C 655.234375 645.613281 655.316406 646.417969 655.425781 647.21875 C 655.535156 648.019531 655.671875 648.820312 655.832031 649.613281 C 655.996094 650.40625 656.179688 651.191406 656.394531 651.972656 C 656.605469 652.753906 656.84375 653.527344 657.109375 654.292969 C 657.371094 655.058594 657.660156 655.816406 657.96875 656.5625 C 658.28125 657.308594 658.621094 658.042969 658.980469 658.769531 C 659.339844 659.496094 659.722656 660.207031 660.128906 660.90625 C 660.539062 661.605469 660.96875 662.292969 661.417969 662.964844 C 661.871094 663.636719 662.34375 664.292969 662.835938 664.933594 C 663.332031 665.574219 663.847656 666.195312 664.382812 666.804688 C 664.917969 667.410156 665.472656 668 666.046875 668.570312 C 666.621094 669.144531 667.210938 669.695312 667.820312 670.226562 C 668.429688 670.757812 669.058594 671.269531 669.703125 671.761719 C 670.34375 672.253906 671.003906 672.726562 671.679688 673.171875 C 672.351562 673.621094 673.039062 674.046875 673.742188 674.453125 C 674.441406 674.855469 675.15625 675.234375 675.882812 675.59375 C 676.609375 675.949219 677.347656 676.28125 678.09375 676.589844 C 678.84375 676.898438 679.601562 677.183594 680.367188 677.445312 C 681.136719 677.703125 681.910156 677.9375 682.691406 678.144531 C 683.476562 678.355469 684.261719 678.539062 685.058594 678.695312 C 685.851562 678.851562 686.648438 678.984375 687.449219 679.089844 C 688.253906 679.195312 689.058594 679.273438 689.867188 679.328125 C 690.675781 679.378906 691.484375 679.40625 692.292969 679.40625 C 693.101562 679.40625 693.910156 679.378906 694.71875 679.328125 C 695.527344 679.273438 696.332031 679.195312 697.136719 679.089844 C 697.9375 678.984375 698.734375 678.855469 699.53125 678.695312 C 700.324219 678.539062 701.113281 678.355469 701.894531 678.148438 C 702.675781 677.9375 703.453125 677.703125 704.21875 677.445312 C 704.984375 677.183594 705.742188 676.902344 706.488281 676.59375 C 707.238281 676.285156 707.976562 675.949219 708.703125 675.59375 C 709.429688 675.234375 710.144531 674.855469 710.84375 674.453125 C 711.546875 674.046875 712.234375 673.621094 712.90625 673.171875 C 713.582031 672.726562 714.242188 672.253906 714.882812 671.761719 C 715.527344 671.273438 716.152344 670.761719 716.761719 670.226562 C 717.371094 669.695312 717.964844 669.144531 718.539062 668.574219 C 719.109375 668 719.667969 667.414062 720.203125 666.804688 C 720.738281 666.199219 721.253906 665.574219 721.746094 664.933594 C 722.242188 664.292969 722.714844 663.636719 723.167969 662.964844 C 723.617188 662.292969 724.046875 661.605469 724.453125 660.90625 C 724.859375 660.207031 725.246094 659.496094 725.605469 658.769531 C 725.964844 658.046875 726.304688 657.308594 726.617188 656.5625 C 726.929688 655.816406 727.21875 655.058594 727.480469 654.292969 C 727.742188 653.527344 727.980469 652.753906 728.191406 651.972656 C 728.40625 651.191406 728.589844 650.40625 728.753906 649.613281 C 728.914062 648.820312 729.050781 648.023438 729.15625 647.21875 C 729.269531 646.417969 729.351562 645.613281 729.40625 644.804688 C 729.464844 643.996094 729.496094 643.1875 729.5 642.378906 C 729.503906 641.570312 729.480469 640.761719 729.429688 639.953125 C 729.382812 639.144531 729.308594 638.339844 729.207031 637.535156 C 729.105469 636.734375 728.976562 635.933594 728.824219 635.140625 C 728.671875 634.34375 728.492188 633.554688 728.285156 632.773438 C 728.082031 631.988281 727.851562 631.214844 727.59375 630.445312 C 727.339844 629.679688 727.058594 628.917969 726.753906 628.167969 C 726.445312 627.417969 726.117188 626.679688 725.765625 625.953125 C 725.410156 625.222656 725.03125 624.507812 724.632812 623.804688 C 724.234375 623.101562 723.808594 622.410156 723.363281 621.734375 C 722.921875 621.058594 722.453125 620.398438 721.964844 619.753906 C 721.476562 619.105469 720.964844 618.476562 720.4375 617.867188 C 719.90625 617.253906 719.359375 616.660156 718.792969 616.082031 C 718.222656 615.503906 717.636719 614.949219 717.03125 614.410156 C 716.429688 613.871094 715.804688 613.355469 715.167969 612.855469 C 714.527344 612.359375 713.875 611.882812 713.207031 611.425781 C 712.535156 610.972656 711.851562 610.539062 711.152344 610.128906 C 710.457031 609.71875 709.746094 609.332031 709.023438 608.96875 C 708.300781 608.601562 707.566406 608.261719 706.820312 607.949219 C 706.074219 607.632812 705.320312 607.339844 704.554688 607.074219 C 703.792969 606.804688 703.019531 606.5625 702.238281 606.347656 C 701.457031 606.132812 700.671875 605.941406 699.882812 605.773438 C 699.089844 605.609375 698.292969 605.472656 697.488281 605.359375 C 696.6875 605.246094 695.882812 605.160156 695.078125 605.097656 C 694.269531 605.035156 693.460938 605.003906 692.652344 604.996094 L 691.933594 604.996094 M 691.933594 675.148438 C 690.867188 675.164062 689.800781 675.128906 688.734375 675.042969 C 687.667969 674.957031 686.609375 674.816406 685.5625 674.625 C 684.507812 674.433594 683.46875 674.191406 682.441406 673.898438 C 681.414062 673.605469 680.402344 673.265625 679.410156 672.871094 C 678.417969 672.480469 677.445312 672.039062 676.492188 671.550781 C 675.542969 671.0625 674.617188 670.527344 673.722656 669.949219 C 672.820312 669.371094 671.953125 668.75 671.117188 668.085938 C 670.28125 667.421875 669.476562 666.71875 668.710938 665.976562 C 667.941406 665.234375 667.210938 664.453125 666.519531 663.640625 C 665.828125 662.824219 665.179688 661.976562 664.570312 661.101562 C 663.960938 660.222656 663.398438 659.316406 662.878906 658.382812 C 662.359375 657.449219 661.886719 656.492188 661.460938 655.511719 C 661.035156 654.53125 660.660156 653.53125 660.332031 652.515625 C 660.003906 651.496094 659.730469 650.464844 659.503906 649.421875 C 659.277344 648.378906 659.105469 647.324219 658.980469 646.261719 C 658.859375 645.203125 658.789062 644.136719 658.773438 643.070312 C 658.753906 642 658.789062 640.933594 658.875 639.867188 C 658.960938 638.804688 659.101562 637.746094 659.292969 636.695312 C 659.484375 635.644531 659.726562 634.601562 660.019531 633.574219 C 660.3125 632.546875 660.65625 631.539062 661.046875 630.542969 C 661.4375 629.550781 661.878906 628.578125 662.367188 627.628906 C 662.855469 626.675781 663.390625 625.753906 663.96875 624.855469 C 664.546875 623.957031 665.167969 623.089844 665.832031 622.25 C 666.496094 621.414062 667.199219 620.613281 667.941406 619.84375 C 668.683594 619.074219 669.464844 618.347656 670.277344 617.652344 C 671.09375 616.960938 671.9375 616.3125 672.816406 615.703125 C 673.695312 615.097656 674.601562 614.53125 675.539062 614.011719 C 676.46875 613.492188 677.425781 613.019531 678.40625 612.597656 C 679.386719 612.171875 680.386719 611.792969 681.402344 611.46875 C 682.417969 611.140625 683.449219 610.863281 684.496094 610.636719 C 685.539062 610.410156 686.59375 610.238281 687.65625 610.117188 C 688.714844 609.992188 689.78125 609.921875 690.851562 609.90625 C 691.917969 609.886719 692.984375 609.921875 694.046875 610.007812 C 695.113281 610.097656 696.171875 610.234375 697.222656 610.425781 C 698.273438 610.617188 699.3125 610.859375 700.339844 611.152344 C 701.367188 611.445312 702.378906 611.789062 703.375 612.179688 C 704.367188 612.574219 705.339844 613.011719 706.289062 613.5 C 707.242188 613.988281 708.164062 614.523438 709.0625 615.101562 C 709.960938 615.679688 710.828125 616.300781 711.664062 616.964844 C 712.503906 617.628906 713.304688 618.332031 714.074219 619.074219 C 714.84375 619.816406 715.570312 620.597656 716.261719 621.410156 C 716.953125 622.226562 717.601562 623.074219 718.210938 623.949219 C 718.820312 624.828125 719.386719 625.734375 719.90625 626.667969 C 720.425781 627.601562 720.894531 628.558594 721.320312 629.539062 C 721.746094 630.519531 722.121094 631.519531 722.449219 632.535156 C 722.777344 633.554688 723.054688 634.585938 723.277344 635.628906 C 723.503906 636.671875 723.679688 637.726562 723.800781 638.789062 C 723.925781 639.847656 723.996094 640.914062 724.011719 641.984375 C 724.011719 642.167969 724.011719 642.34375 724.011719 642.53125 C 724.035156 643.574219 724.003906 644.617188 723.925781 645.660156 C 723.847656 646.703125 723.714844 647.738281 723.53125 648.769531 C 723.351562 649.796875 723.121094 650.816406 722.835938 651.824219 C 722.554688 652.828125 722.222656 653.820312 721.84375 654.792969 C 721.464844 655.769531 721.039062 656.722656 720.566406 657.652344 C 720.09375 658.585938 719.578125 659.492188 719.015625 660.375 C 718.453125 661.257812 717.847656 662.109375 717.203125 662.929688 C 716.558594 663.753906 715.871094 664.542969 715.148438 665.296875 C 714.425781 666.050781 713.667969 666.769531 712.875 667.449219 C 712.082031 668.128906 711.253906 668.769531 710.398438 669.367188 C 709.542969 669.96875 708.65625 670.523438 707.746094 671.035156 C 706.835938 671.550781 705.902344 672.015625 704.945312 672.4375 C 703.988281 672.855469 703.011719 673.230469 702.019531 673.554688 C 701.027344 673.878906 700.019531 674.15625 698.996094 674.382812 C 697.976562 674.609375 696.949219 674.785156 695.910156 674.910156 C 694.871094 675.035156 693.832031 675.109375 692.785156 675.128906 L 691.945312 675.128906 " fill-opacity="1" fill-rule="nonzero"/></svg>