<?xml version="1.0" encoding="utf-8"?>
<!-- Generator: Adobe Illustrator 25.2.1, SVG Export Plug-In . SVG Version: 6.00 Build 0)  -->
<svg version="1.1" id="Layer_1" xmlns="http://www.w3.org/2000/svg" xmlns:xlink="http://www.w3.org/1999/xlink" x="0px" y="0px"
	 viewBox="0 0 438.5 97.3" style="enable-background:new 0 0 438.5 97.3;" xml:space="preserve">
<style type="text/css">
	.st0{fill:#246BF6;}
</style>
<g>
	<g transform="translate(21.371011, 192.092108)">
		<g>
			<path class="st0" d="M5.4-141.9h16.7L6.7-170.3l15.1-21H5.7l-11.1,15.7v-15.7h-16v49.4h16v-11.4l2.6-3.8L5.4-141.9z"/>
		</g>
	</g>
</g>
<g>
	<g transform="translate(55.50809, 192.092108)">
		<g>
			<path class="st0" d="M6-179h21.8v-12.3H-10v49.4h37.8v-12.4H6v-6.4h21.8v-11.8H6V-179z"/>
		</g>
	</g>
</g>
<g>
	<g transform="translate(87.719852, 192.092108)">
		<g>
			<path class="st0" d="M0.7-141.9h16v-22.9L30.2-142l13.5,0.1v-49.4H27.6v22.8l-13.3-22.9H0.7V-141.9z"/>
		</g>
	</g>
</g>
<g>
	<g transform="translate(123.708197, 192.092108)">
		<g>
			<path class="st0" d="M40.6-162.6l15.5,2.5c-2.5,12-10.3,19-21.7,19c-14.2,0-22.2-9.3-22.2-25.5c0-16.3,8-25.5,22.2-25.5
				c11.5,0,19.3,6.8,21.7,19l-15.5,2.5c-0.8-4.9-3.1-7.6-6.1-7.6c-4.1,0-6.5,4.1-6.5,11.6c0,7.4,2.4,11.6,6.5,11.6
				C37.7-155.1,39.9-157.7,40.6-162.6z"/>
		</g>
	</g>
</g>
<g>
	<g transform="translate(159.548439, 192.092108)">
		<g>
			<path class="st0" d="M67.6-191.3H51.6v17.8H40.7v-17.8h-16v49.4h16v-17.8h10.9v17.8h16.1V-191.3z"/>
		</g>
	</g>
</g>
<g>
	<g transform="translate(195.536775, 192.092108)">
		<g>
			<path class="st0" d="M68.9-149.1l2.6,7.2h15.6l-18.3-49.4H52.6l-18.5,49.4h15.5l2.7-7.2H68.9z M64.5-161h-7.9l4-13.5L64.5-161z"
				/>
		</g>
	</g>
</g>
<g>
	<g transform="translate(235.153592, 192.092108)">
		<g>
			<path class="st0" d="M69.6-191.3H49.9v49.4h19.8c14.8,0,23.2-8.9,23.2-24.7S84.5-191.3,69.6-191.3z M70.6-155.8h-4.8v-21.7h4.8
				c4,0,6.4,3.8,6.4,10.9C77.1-159.7,74.7-155.8,70.6-155.8z"/>
		</g>
	</g>
</g>
<g>
	<g transform="translate(270.623574, 192.092108)">
		<g>
			<path class="st0" d="M104.6-179l0.1-12.3h-43v12.2l22.1,0.1l-22.1,24.7v12.4h43v-12.4H82.5L104.6-179z"/>
		</g>
	</g>
</g>
<g>
	<g transform="translate(306.61191, 192.092108)">
		<g>
			<path class="st0" d="M89.7-179h21.8v-12.3H73.7v49.4h37.8v-12.4H89.7v-6.4h21.8v-11.8H89.7V-179z"/>
		</g>
	</g>
</g>
<g>
	<g transform="translate(338.823664, 192.092108)">
		<g>
			<path class="st0" d="M91.8-141.1c5,0,7.9-2.5,7.9-6.7c0-4.2-2.9-6.7-7.9-6.7c-5.1,0-7.9,2.5-7.9,6.7
				C83.9-143.6,86.6-141.1,91.8-141.1z"/>
		</g>
	</g>
</g>
<g>
	<g transform="translate(152.177273, 227.022899)">
		<g>
			<path d="M37.9-157h-3.3v16.4c0,1.4,0,2.4,0,3.1c-0.2,3.1-1.8,5.1-4.9,5.1c-3.2,0-4.9-1.8-5.1-5.4l-0.1-1.6h-3.3l0,1.6
				c0.1,5,3.1,8,8,8c5.6,0,8.4-3.1,8.6-7.5c0.1-1.3,0.1-2.2,0.1-3.2V-157z"/>
		</g>
	</g>
</g>
<g>
	<g transform="translate(167.387527, 227.022899)">
		<g>
			<path d="M38.5-157.5c-8.1,0-12.6,5.7-12.6,13.9c0,8.1,4.5,13.9,12.6,13.9s12.6-5.8,12.6-13.9C51.1-151.8,46.6-157.5,38.5-157.5z
				 M38.5-132.4c-5.6,0-8.9-4.3-8.9-11.3c0-7,3.3-11.3,8.9-11.3s8.9,4.3,8.9,11.3C47.4-136.7,44.1-132.4,38.5-132.4z"/>
		</g>
	</g>
</g>
<g>
	<g transform="translate(188.200136, 227.022899)">
		<g>
			<path d="M48.3-144.5c2.8-0.9,4.5-2.6,4.5-5.8c0-3.8-2.4-5.9-6.6-6.5c-1.3-0.1-2.2-0.1-3.5-0.1h-7.9v26.7h8.6c1.2,0,2.1,0,3.4-0.2
				c3.5-0.5,6.9-2.8,6.9-7.7C53.8-141.8,51.8-143.7,48.3-144.5z M38.2-154.3H43c0.6,0,1.4,0,2.1,0.1c2.4,0.3,4.1,1.5,4.1,4.1
				c0,2.4-1,4-3.8,4.4c-0.8,0.1-1.4,0.2-2.1,0.2h-5.1V-154.3z M45.8-133.1c-0.5,0-1.2,0.1-1.9,0.1h-5.8v-9.8h5.5
				c0.6,0,1.2,0,2.1,0.1c2.6,0.4,4.4,1.6,4.4,4.9C50.2-134.9,48.4-133.3,45.8-133.1z"/>
		</g>
	</g>
</g>
<g>
	<g transform="translate(205.819691, 227.022899)">
		<g>
			<path d="M49-157.5c-4.9,0-8.9,2.9-8.9,7.5c0,4.4,3.3,6.3,8,7.4c4.7,1.1,6.5,2.6,6.5,5.8c0,2.8-2.5,4.5-5.5,4.5
				c-3.5,0-5.9-2-6.7-5.5h-3.6c0.6,5.1,4.3,8.1,10.2,8.1c5.1,0,9.2-3,9.2-7.7c0-4.5-3-6.9-8.8-8.3c-4.1-0.9-5.7-2.2-5.7-5.1
				c0-2.8,2.2-4.1,5.1-4.1c3.4,0,5.4,1.9,5.7,5.3H58C57.4-154.2,54.5-157.5,49-157.5z"/>
		</g>
	</g>
</g>
</svg>
