<svg width="56" height="56" viewBox="0 0 56 56" fill="none" xmlns="http://www.w3.org/2000/svg">
<circle cx="28" cy="28" r="28" fill="#E8E4FF"/>
<path d="M18.8452 18.8457C16.7272 20.9637 15.4092 23.7505 15.1156 26.7314C14.822 29.7122 15.571 32.7027 17.2351 35.1932C18.8992 37.6836 21.3754 39.5201 24.2417 40.3896C27.108 41.259 30.1871 41.1078 32.9544 39.9615C35.7216 38.8153 38.0059 36.745 39.4178 34.1034C40.8298 31.4618 41.2821 28.4123 40.6978 25.4746C40.1134 22.5369 38.5285 19.8927 36.2132 17.9925C33.8978 16.0923 30.9952 15.0537 27.9999 15.0537" stroke="#8671FF" stroke-width="2" stroke-linecap="round"/>
<path d="M28 28L19.04 19.04" stroke="#8671FF" stroke-width="2" stroke-linecap="round"/>
<path d="M28 14.5605V17.5472" stroke="#8671FF" stroke-width="2" stroke-linecap="round"/>
<path d="M41.4399 28L38.4533 28" stroke="#8671FF" stroke-width="2" stroke-linecap="round"/>
<path d="M28 38.4531V41.4398" stroke="#8671FF" stroke-width="2" stroke-linecap="round"/>
<path d="M17.5469 28L14.5602 28" stroke="#8671FF" stroke-width="2" stroke-linecap="round"/>
</svg>
